<?xml version="1.0" encoding="utf-8"?>
<!-- Generator: Adobe Illustrator 19.1.0, SVG Export Plug-In . SVG Version: 6.00 Build 0)  -->
<svg version="1.1" id="Layer_1" xmlns="http://www.w3.org/2000/svg" xmlns:xlink="http://www.w3.org/1999/xlink" x="0px" y="0px"
	 viewBox="110 -137 320 435" style="enable-background:new 110 -137 320 435;" xml:space="preserve">
<style type="text/css">
	.chevron-fill {fill:#FFFFFF; opacity: 0.02;}
</style>
<g>
	<g>
		<path class="chevron-fill" d="M218.9-133.5v28.2c0,1.2,0.7,2.3,1.8,2.8L263-81.3c2.1,1.1,4.6-0.5,4.6-2.8v-28.2c0-1.2-0.7-2.3-1.8-2.8
			l-42.3-21.2C221.4-137.4,218.9-135.9,218.9-133.5z"/>
	</g>
	<g>
		<path class="chevron-fill" d="M218.9-8v28.2c0,1.2,0.7,2.3,1.8,2.8L263,44.2c2.1,1.1,4.6-0.5,4.6-2.8V13.2c0-1.2-0.7-2.3-1.8-2.8
			l-42.3-21.2C221.4-11.9,218.9-10.3,218.9-8z"/>
	</g>
	<g>
		<path class="chevron-fill" d="M218.9,75.8V104c0,1.2,0.7,2.3,1.8,2.8L263,128c2.1,1.1,4.6-0.5,4.6-2.8V96.9c0-1.2-0.7-2.3-1.8-2.8
			l-42.3-21.2C221.4,71.9,218.9,73.4,218.9,75.8z"/>
	</g>
	<g>
		<path class="chevron-fill" d="M218.9,116.2v28.2c0,1.2,0.7,2.3,1.8,2.8l42.3,21.2c2.1,1.1,4.6-0.5,4.6-2.8v-28.2c0-1.2-0.7-2.3-1.8-2.8
			l-42.3-21.2C221.4,112.3,218.9,113.9,218.9,116.2z"/>
	</g>
	<g>
		<path class="chevron-fill" d="M218.9,241.8V270c0,1.2,0.7,2.3,1.8,2.8L263,294c2.1,1.1,4.6-0.5,4.6-2.8V263c0-1.2-0.7-2.3-1.8-2.8
			L223.5,239C221.4,237.9,218.9,239.4,218.9,241.8z"/>
	</g>
</g>
<g class="st0">
	<g>
		<path class="chevron-fill" d="M112-133.5v28.2c0,1.2,0.7,2.3,1.8,2.8l42.3,21.2c2.1,1.1,4.6-0.5,4.6-2.8v-28.2c0-1.2-0.7-2.3-1.8-2.8
			l-42.3-21.2C114.5-137.4,112-135.9,112-133.5z"/>
	</g>
	<g>
		<path class="chevron-fill" d="M112-50v28.2c0,1.2,0.7,2.3,1.8,2.8l42.3,21.2c2.1,1.1,4.6-0.5,4.6-2.8v-28.2c0-1.2-0.7-2.3-1.8-2.8
			l-42.3-21.2C114.5-53.9,112-52.3,112-50z"/>
	</g>
	<g>
		<path class="chevron-fill" d="M112-8v28.2c0,1.2,0.7,2.3,1.8,2.8l42.3,21.2c2.1,1.1,4.6-0.5,4.6-2.8V13.2c0-1.2-0.7-2.3-1.8-2.8l-42.3-21.2
			C114.5-11.9,112-10.3,112-8z"/>
	</g>
	<g>
		<path class="chevron-fill" d="M112,75.8V104c0,1.2,0.7,2.3,1.8,2.8l42.3,21.2c2.1,1.1,4.6-0.5,4.6-2.8V96.9c0-1.2-0.7-2.3-1.8-2.8
			l-42.3-21.2C114.5,71.9,112,73.4,112,75.8z"/>
	</g>
	<g>
		<path class="chevron-fill" d="M112,116.2v28.2c0,1.2,0.7,2.3,1.8,2.8l42.3,21.2c2.1,1.1,4.6-0.5,4.6-2.8v-28.2c0-1.2-0.7-2.3-1.8-2.8
			l-42.3-21.2C114.5,112.3,112,113.9,112,116.2z"/>
	</g>
	<g>
		<path class="chevron-fill" d="M112,199.8V228c0,1.2,0.7,2.3,1.8,2.8l42.3,21.2c2.1,1.1,4.6-0.5,4.6-2.8V221c0-1.2-0.7-2.3-1.8-2.8
			L116.6,197C114.5,195.9,112,197.4,112,199.8z"/>
	</g>
	<g>
		<path class="chevron-fill" d="M112,241.8V270c0,1.2,0.7,2.3,1.8,2.8l42.3,21.2c2.1,1.1,4.6-0.5,4.6-2.8V263c0-1.2-0.7-2.3-1.8-2.8
			L116.6,239C114.5,237.9,112,239.4,112,241.8z"/>
	</g>
</g>
<g class="st0">
	<g>
		<path class="chevron-fill" d="M214.1-91.1v28.2c0,1.2-0.7,2.3-1.8,2.8L170-38.9c-2.1,1.1-4.6-0.5-4.6-2.8v-28.2c0-1.2,0.7-2.3,1.8-2.8
			l42.3-21.2C211.7-95,214.1-93.4,214.1-91.1z"/>
	</g>
	<g>
		<path class="chevron-fill" d="M214.1-49.5v28.2c0,1.2-0.7,2.3-1.8,2.8L170,2.7c-2.1,1.1-4.6-0.5-4.6-2.8v-28.2c0-1.2,0.7-2.3,1.8-2.8
			l42.3-21.2C211.7-53.4,214.1-51.9,214.1-49.5z"/>
	</g>
	<g>
		<path class="chevron-fill" d="M214.1,34.2v28.2c0,1.2-0.7,2.3-1.8,2.8L170,86.4c-2.1,1.1-4.6-0.5-4.6-2.8V55.4c0-1.2,0.7-2.3,1.8-2.8
			l42.3-21.2C211.7,30.3,214.1,31.9,214.1,34.2z"/>
	</g>
	<g>
		<path class="chevron-fill" d="M214.1,76.2v28.2c0,1.2-0.7,2.3-1.8,2.8L170,128.4c-2.1,1.1-4.6-0.5-4.6-2.8V97.4c0-1.2,0.7-2.3,1.8-2.8
			l42.3-21.2C211.7,72.3,214.1,73.9,214.1,76.2z"/>
	</g>
	<g>
		<path class="chevron-fill" d="M214.1,158.7v28.2c0,1.2-0.7,2.3-1.8,2.8L170,210.9c-2.1,1.1-4.6-0.5-4.6-2.8v-28.2c0-1.2,0.7-2.3,1.8-2.8
			l42.3-21.2C211.7,154.8,214.1,156.3,214.1,158.7z"/>
	</g>
	<g>
		<path class="chevron-fill" d="M214.1,200.2v28.2c0,1.2-0.7,2.3-1.8,2.8L170,252.4c-2.1,1.1-4.6-0.5-4.6-2.8v-28.2c0-1.2,0.7-2.3,1.8-2.8
			l42.3-21.2C211.7,196.3,214.1,197.9,214.1,200.2z"/>
	</g>
</g>
<g class="st0">
	<g>
		<path class="chevron-fill" d="M321.1-91.1v28.2c0,1.2-0.7,2.3-1.8,2.8L277-38.9c-2.1,1.1-4.6-0.5-4.6-2.8v-28.2c0-1.2,0.7-2.3,1.8-2.8
			l42.3-21.2C318.6-95,321.1-93.4,321.1-91.1z"/>
	</g>
	<g>
		<path class="chevron-fill" d="M321.1,34.2v28.2c0,1.2-0.7,2.3-1.8,2.8L277,86.4c-2.1,1.1-4.6-0.5-4.6-2.8V55.4c0-1.2,0.7-2.3,1.8-2.8
			l42.3-21.2C318.6,30.3,321.1,31.9,321.1,34.2z"/>
	</g>
	<g>
		<path class="chevron-fill" d="M321.1,158.7v28.2c0,1.2-0.7,2.3-1.8,2.8L277,210.9c-2.1,1.1-4.6-0.5-4.6-2.8v-28.2c0-1.2,0.7-2.3,1.8-2.8
			l42.3-21.2C318.6,154.8,321.1,156.3,321.1,158.7z"/>
	</g>
</g>
<g class="st0">
	<g>
		<path class="chevron-fill" d="M325.9-133.5v28.2c0,1.2,0.7,2.3,1.8,2.8L370-81.3c2.1,1.1,4.6-0.5,4.6-2.8v-28.2c0-1.2-0.7-2.3-1.8-2.8
			l-42.3-21.2C328.4-137.4,325.9-135.9,325.9-133.5z"/>
	</g>
	<g>
		<path class="chevron-fill" d="M325.9-91.5v28.2c0,1.2,0.7,2.3,1.8,2.8L370-39.3c2.1,1.1,4.6-0.5,4.6-2.8v-28.2c0-1.2-0.7-2.3-1.8-2.8
			l-42.3-21.2C328.4-95.4,325.9-93.9,325.9-91.5z"/>
	</g>
	<g>
		<path class="chevron-fill" d="M325.9-8v28.2c0,1.2,0.7,2.3,1.8,2.8L370,44.2c2.1,1.1,4.6-0.5,4.6-2.8V13.2c0-1.2-0.7-2.3-1.8-2.8
			l-42.3-21.2C328.4-11.9,325.9-10.3,325.9-8z"/>
	</g>
	<g>
		<path class="chevron-fill" d="M325.9,33.8V62c0,1.2,0.7,2.3,1.8,2.8L370,86c2.1,1.1,4.6-0.5,4.6-2.8V55c0-1.2-0.7-2.3-1.8-2.8L330.5,31
			C328.4,29.9,325.9,31.4,325.9,33.8z"/>
	</g>
	<g>
		<path class="chevron-fill" d="M325.9,116.2v28.2c0,1.2,0.7,2.3,1.8,2.8l42.3,21.2c2.1,1.1,4.6-0.5,4.6-2.8v-28.2c0-1.2-0.7-2.3-1.8-2.8
			l-42.3-21.2C328.4,112.3,325.9,113.9,325.9,116.2z"/>
	</g>
	<g>
		<path class="chevron-fill" d="M325.9,158.2v28.2c0,1.2,0.7,2.3,1.8,2.8l42.3,21.2c2.1,1.1,4.6-0.5,4.6-2.8v-28.2c0-1.2-0.7-2.3-1.8-2.8
			l-42.3-21.2C328.4,154.3,325.9,155.9,325.9,158.2z"/>
	</g>
	<g>
		<path class="chevron-fill" d="M325.9,241.8V270c0,1.2,0.7,2.3,1.8,2.8L370,294c2.1,1.1,4.6-0.5,4.6-2.8V263c0-1.2-0.7-2.3-1.8-2.8
			L330.5,239C328.4,237.9,325.9,239.4,325.9,241.8z"/>
	</g>
</g>
<g class="st0">
	<g>
		<path class="chevron-fill" d="M428-49.5v28.2c0,1.2-0.7,2.3-1.8,2.8L384,2.7c-2.1,1.1-4.6-0.5-4.6-2.8v-28.2c0-1.2,0.7-2.3,1.8-2.8
			l42.3-21.2C425.6-53.4,428-51.9,428-49.5z"/>
	</g>
	<g>
		<path class="chevron-fill" d="M428-7.5v28.2c0,1.2-0.7,2.3-1.8,2.8L384,44.7c-2.1,1.1-4.6-0.5-4.6-2.8V13.7c0-1.2,0.7-2.3,1.8-2.8
			l42.3-21.2C425.6-11.4,428-9.9,428-7.5z"/>
	</g>
	<g>
		<path class="chevron-fill" d="M428,76.2v28.2c0,1.2-0.7,2.3-1.8,2.8L384,128.4c-2.1,1.1-4.6-0.5-4.6-2.8V97.4c0-1.2,0.7-2.3,1.8-2.8
			l42.3-21.2C425.6,72.3,428,73.9,428,76.2z"/>
	</g>
	<g>
		<path class="chevron-fill" d="M428,200.2v28.2c0,1.2-0.7,2.3-1.8,2.8L384,252.4c-2.1,1.1-4.6-0.5-4.6-2.8v-28.2c0-1.2,0.7-2.3,1.8-2.8
			l42.3-21.2C425.6,196.3,428,197.9,428,200.2z"/>
	</g>
</g>
</svg>
